<?xml version="1.0" standalone="no"?>
<!DOCTYPE svg PUBLIC "-//W3C//DTD SVG 20010904//EN"
 "http://www.w3.org/TR/2001/REC-SVG-20010904/DTD/svg10.dtd">
<svg version="1.0" xmlns="http://www.w3.org/2000/svg"
 width="900.000000pt" height="640.000000pt" viewBox="0 0 900.000000 640.000000"
 preserveAspectRatio="xMidYMid meet">

<g transform="translate(0.000000,640.000000) scale(0.100000,-0.100000)"
fill="#fc0341" stroke="none">
<path d="M4870 5914 c-23 -36 -61 -79 -84 -96 l-41 -30 -175 5 c-148 5 -195
10 -305 36 -282 67 -459 44 -611 -77 -77 -61 -104 -122 -104 -234 0 -59 5 -99
15 -117 23 -46 100 -107 245 -194 166 -100 203 -132 203 -176 0 -17 -9 -44
-20 -59 -16 -21 -27 -26 -54 -24 -19 1 -317 25 -664 53 -487 39 -653 49 -730
44 -346 -23 -633 -139 -846 -342 -175 -167 -266 -348 -291 -579 -18 -164 8
-306 85 -459 109 -219 298 -388 512 -456 86 -27 343 -38 475 -20 46 6 86 9 88
6 3 -3 -9 -101 -26 -218 -34 -230 -33 -255 11 -315 12 -17 38 -53 57 -79 33
-45 35 -54 38 -134 l4 -87 -36 -40 c-43 -47 -108 -79 -245 -122 -55 -17 -103
-35 -106 -40 -2 -4 5 -101 16 -216 12 -127 19 -251 17 -316 -4 -95 -8 -113
-36 -171 -19 -38 -64 -100 -108 -148 -42 -46 -88 -101 -101 -122 l-26 -37 37
-55 c20 -30 36 -67 36 -81 0 -15 -22 -68 -49 -118 -72 -134 -72 -132 -15 -157
46 -21 57 -21 333 -15 157 3 306 9 330 12 l43 6 -7 57 c-6 51 -25 119 -102
381 -36 120 -38 295 -5 392 61 177 231 337 407 383 42 10 108 15 226 15 181 0
242 -11 443 -79 49 -17 90 -30 91 -28 1 1 -2 36 -6 77 -19 163 -16 187 30 287
23 51 43 105 44 120 2 26 -1 28 -55 35 -189 24 -441 199 -601 417 -58 78 -59
91 -9 91 59 0 175 36 275 87 146 73 184 83 312 83 l112 0 61 -40 c34 -22 62
-36 62 -32 0 4 -14 43 -32 87 -28 70 -32 92 -32 175 -1 82 3 103 26 152 80
171 285 286 613 343 100 17 465 32 535 21 73 -11 78 -18 45 -62 -16 -21 -85
-97 -154 -168 -159 -168 -226 -248 -258 -313 -23 -48 -25 -62 -21 -151 3 -87
7 -106 37 -167 47 -95 146 -191 248 -242 l77 -38 145 0 c144 0 147 0 215 33
81 38 176 129 225 216 21 35 45 106 66 190 37 148 85 402 85 453 0 45 14 43
104 -18 177 -118 403 -427 466 -637 30 -98 25 -255 -10 -347 -45 -118 -134
-227 -249 -305 -28 -19 -51 -39 -51 -43 0 -4 55 -87 121 -185 67 -97 123 -182
126 -188 2 -6 35 -14 74 -17 88 -7 152 -41 225 -119 93 -101 144 -238 144
-382 -1 -81 -14 -135 -58 -231 -30 -68 -36 -91 -36 -154 -1 -73 0 -75 30 -93
46 -27 158 -37 401 -38 175 -1 242 3 342 20 69 11 126 22 128 24 7 6 -66 136
-119 213 -30 43 -119 170 -199 283 -190 269 -258 375 -319 501 -77 156 -82
182 -78 372 l3 163 37 75 c36 72 69 121 232 346 112 154 128 191 134 324 6
138 -11 273 -54 422 -152 528 -597 1355 -873 1621 l-40 39 -168 -6 c-285 -12
-754 -63 -992 -108 -130 -25 -285 -76 -382 -124 -104 -53 -193 -115 -349 -245
-332 -276 -925 -697 -1234 -874 -252 -144 -464 -239 -621 -277 -112 -27 -357
-27 -443 -1 -72 23 -139 68 -185 125 -75 93 -100 182 -101 363 l-1 130 42 86
c98 198 348 388 607 463 84 24 100 25 345 25 141 0 328 -5 416 -11 233 -17
641 -17 750 0 171 26 273 68 326 135 31 39 37 143 14 221 -25 87 -114 171
-264 250 -65 35 -126 74 -143 94 -28 31 -30 39 -24 84 6 56 32 92 83 113 48
21 216 18 448 -7 164 -18 211 -20 264 -11 82 14 200 72 240 117 30 35 31 39
31 131 0 87 -2 97 -25 119 -13 14 -28 25 -33 25 -5 0 -28 -30 -52 -66z"/>
<path d="M4697 3639 c-353 -62 -546 -209 -578 -440 -12 -84 -3 -122 71 -297
28 -64 50 -121 50 -125 0 -16 -47 7 -138 69 -109 75 -166 94 -279 94 -72 0
-97 -5 -191 -40 -97 -35 -175 -58 -267 -76 l-30 -6 76 -71 c161 -153 419 -266
603 -267 l59 0 -6 -28 c-3 -16 -28 -90 -56 -164 -66 -178 -76 -239 -62 -368
29 -264 3 -351 -177 -589 -97 -129 -101 -144 -56 -233 79 -157 337 -314 594
-362 126 -24 137 -23 186 28 23 24 68 91 99 148 120 214 231 341 356 408 32
17 109 44 173 60 63 16 133 38 155 50 24 12 76 61 131 123 49 57 101 109 115
115 24 11 35 7 128 -51 154 -96 225 -133 302 -157 86 -26 308 -45 387 -33 l57
8 -84 120 c-46 66 -107 163 -136 215 -114 209 -217 331 -316 372 -29 12 -53
25 -53 29 0 13 79 66 173 115 102 54 191 134 221 199 77 163 58 360 -56 577
-52 99 -162 249 -197 267 -18 10 -19 6 -26 -87 -31 -456 -174 -692 -465 -769
-49 -13 -107 -17 -235 -17 -156 -1 -175 1 -229 23 -257 103 -443 379 -421 626
17 195 60 279 211 404 55 45 112 98 127 117 l29 34 -69 -1 c-37 0 -117 -9
-176 -20z"/>
<path d="M5245 1264 c-137 -69 -254 -130 -260 -135 -7 -7 12 -30 56 -69 76
-68 86 -88 102 -201 12 -81 13 -83 45 -91 17 -5 32 -12 32 -17 0 -5 -24 -72
-54 -149 l-53 -141 51 -5 c99 -11 483 -27 603 -27 126 2 223 21 223 45 0 18
-91 147 -169 241 -210 250 -275 376 -303 586 -6 49 -14 89 -17 88 -3 0 -118
-56 -256 -125z"/>
</g>
</svg>
